# xmcd
#
# Track frame offsets:
#	150
#	16193
#	27129
#	40260
#	58408
#	76707
#	95362
#	112385
#	136348
#	153946
#	169407
#	186378
#
# Disc length: 2811 seconds
#
# Revision: 0
# Processed by: cddbd v1.5.2PL0 Copyright (c) Steve Scherf et al.
# Submitted via: EasyCDDAExtractor 12.0.1.1
#
DISCID=9c0af90c
DTITLE=Various Artist - Various - 200 Cadillacs
DYEAR=2003
DGENRE=
TTITLE0=Rex Fowler - 200 Cadillacs
TTITLE1=Jon Pousette-Dart - Running With The King
TTITLE2=The Cucumbers - Blue Cadillac
TTITLE3=Heather Eatman - Too Tired To Be Elvis
TTITLE4=Rex Fowler - Tough and Tender
TTITLE5=Carl Perkins - Memphis In The Meantime
TTITLE6=Syd Straw And The Del-Lords - Listening To Elvis
TTITLE7=Rex Fowler - Velvet Elvis
TTITLE8=The Cucumbers - All Shook Up
TTITLE9=Tom Dean - The Cadillac Song
TTITLE10=Paul Burlison With Levon Helm and Mavis Staples - Hound Dog
TTITLE11=Billy Davis/Miner-Carl Smith/Gene Barge - Shine A Little Light
EXTD=
EXTT0=
EXTT1=
EXTT2=
EXTT3=
EXTT4=
EXTT5=
EXTT6=
EXTT7=
EXTT8=
EXTT9=
EXTT10=
EXTT11=
PLAYORDER=
